<svg xmlns="http://www.w3.org/2000/svg" width="1024" height="1024" viewBox="0 0 1024 1024">
  <defs>
    <linearGradient id="background" x1="120" y1="80" x2="900" y2="950" gradientUnits="userSpaceOnUse">
      <stop stop-color="#7567F8"/>
      <stop offset="1" stop-color="#4F42B4"/>
    </linearGradient>
  </defs>
  <rect x="72" y="72" width="880" height="880" rx="220" fill="url(#background)"/>
  <path d="M298 300h184c154 0 251 78 251 211 0 134-97 213-251 213H298V300Zm175 326c83 0 133-39 133-115 0-74-50-113-133-113h-49v228h49Z" fill="white"/>
  <path d="M664 312c50 0 93 11 126 32l-37 82c-28-17-58-26-89-26-25 0-39 8-39 21 0 15 19 21 57 32 70 20 121 49 121 126 0 91-72 145-177 145-57 0-116-16-157-46l44-85c35 25 77 39 116 39 28 0 46-9 46-25 0-17-22-24-62-35-68-19-113-50-113-119 0-87 67-141 164-141Z" fill="#E9E6FF" opacity=".94"/>
</svg>
